<?xml version="1.0" standalone="no"?>
<!DOCTYPE svg PUBLIC "-//W3C//DTD SVG 1.1//EN" "http://www.w3.org/Graphics/SVG/1.1/DTD/svg11.dtd" >
<!--
2013-9-30: Created.
-->
<svg>
<metadata>
Created by iconfont
</metadata>
<defs>

<font id="iconfont" horiz-adv-x="1024" >
  <font-face
    font-family="iconfont"
    font-weight="500"
    font-stretch="normal"
    units-per-em="1024"
    ascent="896"
    descent="-128"
  />
    <missing-glyph />
    
    <glyph glyph-name="x" unicode="x" horiz-adv-x="1001"
d="M281 543q-27 -1 -53 -1h-83q-18 0 -36.5 -6t-32.5 -18.5t-23 -32t-9 -45.5v-76h912v41q0 16 -0.5 30t-0.5 18q0 13 -5 29t-17 29.5t-31.5 22.5t-49.5 9h-133v-97h-438v97zM955 310v-52q0 -23 0.5 -52t0.5 -58t-10.5 -47.5t-26 -30t-33 -16t-31.5 -4.5q-14 -1 -29.5 -0.5
t-29.5 0.5h-32l-45 128h-439l-44 -128h-29h-34q-20 0 -45 1q-25 0 -41 9.5t-25.5 23t-13.5 29.5t-4 30v167h911zM163 247q-12 0 -21 -8.5t-9 -21.5t9 -21.5t21 -8.5q13 0 22 8.5t9 21.5t-9 21.5t-22 8.5zM316 123q-8 -26 -14 -48q-5 -19 -10.5 -37t-7.5 -25t-3 -15t1 -14.5
t9.5 -10.5t21.5 -4h37h67h81h80h64h36q23 0 34 12t2 38q-5 13 -9.5 30.5t-9.5 34.5q-5 19 -11 39h-368zM336 498v228q0 11 2.5 23t10 21.5t20.5 15.5t34 6h188q31 0 51.5 -14.5t20.5 -52.5v-227h-327z" />
    

    
    <glyph glyph-name="xiaosanjiaodown" unicode="&#58894;" d="M735.136 406.72 512 176 288.864 406.72Z"  horiz-adv-x="1024" />

    
    <glyph glyph-name="triangle-bottom" unicode="&#58923;" d="M523.955 63.827l323.744 512c6.24 9.856 6.624 22.336 0.992 32.512-5.632 10.24-16.384 16.576-28.033 16.576h-647.328c-11.647 0-22.4-6.336-28.033-16.576-2.656-4.8-3.968-10.112-3.968-15.424 0-5.952 1.664-11.904 4.929-17.088l323.616-512c5.856-9.28 16.064-14.911 27.040-14.912s21.184 5.632 27.040 14.912z"  horiz-adv-x="1024" />

    
    <glyph glyph-name="triangle-right" unicode="&#58924;" d="M817.088 411.040l-512 323.744c-9.856 6.24-22.336 6.624-32.512 0.992-10.24-5.632-16.576-16.384-16.576-28.032v-647.328c0-11.648 6.336-22.4 16.576-28.032 4.8-2.656 10.112-3.968 15.424-3.968 5.952 0 11.904 1.664 17.088 4.928l512 323.616c9.28 5.856 14.912 16.064 14.912 27.040s-5.632 21.184-14.912 27.040z"  horiz-adv-x="1024" />

    
    <glyph glyph-name="iconfontcaidan" unicode="&#58895;" d="M199.68 595.968m-49.152 0a4.8 4.8 0 1 0 98.304 0 4.8 4.8 0 1 0-98.304 0ZM402.432 552.96 829.44 552.96c23.552 0 44.032 19.456 44.032 44.032S852.992 640 829.44 640L402.432 640c-23.552 0-44.032-19.456-44.032-44.032S377.856 552.96 402.432 552.96zM199.68 384m-49.152 0a4.8 4.8 0 1 0 98.304 0 4.8 4.8 0 1 0-98.304 0ZM829.44 427.008 402.432 427.008c-23.552 0-44.032-19.456-44.032-44.032s19.456-44.032 44.032-44.032L829.44 338.944c23.552 0 44.032 19.456 44.032 44.032S852.992 427.008 829.44 427.008zM199.68 171.008m-49.152 0a4.8 4.8 0 1 0 98.304 0 4.8 4.8 0 1 0-98.304 0ZM829.44 215.04 402.432 215.04c-23.552 0-44.032-19.456-44.032-44.032s19.456-44.032 44.032-44.032L829.44 126.976c23.552 0 44.032 19.456 44.032 44.032S852.992 215.04 829.44 215.04z"  horiz-adv-x="1024" />

    
    <glyph glyph-name="fengxianyujing" unicode="&#58888;" d="M512.559104 793.592832c47.620096 0.668672 37.722112-47.896576 37.722112-93.449216 0-19.12832 3.248128-43.339776-4.284416-55.728128-5.36064-8.818688-14.343168-14.272512-26.575872-16.289792-7.154688-1.176576-13.819904 1.728512-18.006016 3.859456-26.208256 13.349888-18.863104 52.431872-18.863104 90.44992 0 15.9232-3.361792 37.322752 1.716224 49.727488C489.827328 785.746944 498.791424 787.869696 512.559104 793.592832L512.559104 793.592832zM512.559104 793.592832M269.073408 711.718912c11.067392 0.059392 18.671616-2.904064 24.863744-7.716864 15.860736-19.429376 31.724544-38.86592 47.58016-58.299392 7.927808-10.179584 19.726336-19.656704 24.863744-32.150528 7.20896-17.517568-3.35872-34.62144-14.144512-41.150464-11.379712-6.89152-28.972032-4.882432-38.581248 2.142208-11.418624 8.35072-20.445184 23.963648-29.14816 35.1488-8.71424 10.719232-17.435648 21.435392-26.149888 32.150528-12.063744 15.50848-31.688704 33.655808-12.857344 57.873408C251.43808 707.356672 259.054592 707.728384 269.073408 711.718912L269.073408 711.718912zM269.073408 711.718912M756.470784 700.14464c24.539136 0.441344 48.007168-18.366464 37.295104-45.008896-5.19168-12.91264-17.521664-21.126144-25.719808-31.29344-11.001856-12.288-22.006784-24.578048-33.007616-36.865024-5.840896-7.247872-12.3648-16.676864-20.149248-21.861376-8.722432-5.812224-25.805824-7.682048-36.00896-1.716224-13.315072 7.788544-23.72608 28.839936-12.862464 46.72512 10.860544 12.145664 21.720064 24.292352 32.580608 36.43904 8.572928 9.56928 17.14688 19.147776 25.719808 28.71808 5.610496 6.966272 11.587584 15.355904 19.289088 20.149248C747.89888 697.00096 752.186368 698.5728 756.470784 700.14464L756.470784 700.14464zM756.470784 700.14464M721.321984 99.1488 301.654016 99.1488 301.654016 291.621888c0 38.791168-2.51392 81.677312 6.43072 111.885312 16.76288 56.619008 49.238016 96.00512 95.16544 123.456512 20.067328 11.993088 42.697728 20.450304 69.444608 26.149888 8.858624 0.856064 17.718272 1.712128 26.575872 2.568192 8.143872 0.145408 16.289792 0.289792 24.433664 0.43008 18.182144-2.77504 34.686976-3.761152 50.156544-8.572928 70.938624-22.068224 119.79776-72.138752 141.029376-144.031744 8.89856-30.121984 6.43072-72.768512 6.43072-111.456256C721.321984 227.75808 721.321984 163.442688 721.321984 99.1488L721.321984 99.1488zM721.321984 99.1488M131.898368 492.66688c12.224512 0.26624 21.037056-2.536448 30.864384-4.713472 18.863104-3.714048 37.725184-7.432192 56.588288-11.14624 14.21824-3.331072 29.299712-3.518464 38.151168-12.00128 9.097216-8.718336 15.535104-27.236352 6.857728-41.57952-4.722688-7.806976-12.944384-14.019584-23.14752-16.290816-10.661888-2.372608-21.810176 1.83296-30.435328 3.859456-18.86208 3.714048-37.725184 7.428096-56.587264 11.14624-14.508032 3.396608-29.938688 3.858432-39.86432 11.5712-13.845504 10.758144-15.929344 38.882304-1.286144 50.583552C118.6816 488.605696 124.40064 489.465856 131.898368 492.66688L131.898368 492.66688zM131.898368 492.66688M884.217856 475.521024c28.460032 0.300032 47.72864-29.590528 30.00832-53.584896-9.648128-13.057024-26.438656-12.604416-45.868032-16.28672-19.147776-2.85696-38.296576-5.71904-57.443328-8.577024-8.543232-1.646592-19.738624-5.098496-29.57824-2.998272-11.142144 2.372608-20.719616 9.495552-24.859648 18.863104-8.35072 18.874368 2.505728 38.475776 16.28672 44.577792 7.963648 3.526656 18.130944 3.237888 27.865088 5.148672 19.004416 2.998272 38.01088 6.00064 57.014272 8.998912C866.496512 472.948736 875.358208 474.23488 884.217856 475.521024L884.217856 475.521024zM884.217856 475.521024M260.50048 70.426624l410.669056 0c52.173824 0.004096 97.803264 9.35936 118.31296-24.859648 3.85024-6.4256 8.009728-16.919552 6.00064-28.722176-8.854528-52.06016-64.070656-41.583616-123.027456-41.57952L377.531392-24.73472l-85.735424 0c-14.605312-0.004096-32.365568-1.591296-43.296768 2.573312-23.456768 8.928256-42.998784 40.210432-25.289728 69.444608 5.055488 8.342528 13.699072 15.833088 23.14752 19.718144C251.071488 68.144128 255.785984 69.285888 260.50048 70.426624L260.50048 70.426624zM260.50048 70.426624"  horiz-adv-x="1024" />

    
    <glyph glyph-name="yousanjiao" unicode="&#58900;" d="M384.30607 639.795611l0-512.41186 320.259338 256.206443L384.30607 639.795611z"  horiz-adv-x="1024" />

    
    <glyph glyph-name="user" unicode="&#58880;" d="M164.655 827.023l0 0 0 0zM866.321 126.851q0-59.804-36.377-94.437t-96.684-34.632l-435.544 0q-60.293 0-96.684 34.632t-36.377 94.437q0 26.414 1.744 51.573t6.977 54.321 13.2 54.069 21.432 48.586 30.892 40.367 42.614 26.665 55.563 9.963q4.479 0 20.931-10.717t37.131-23.916 53.819-23.916 66.531-10.717 66.531 10.717 53.819 23.916 37.131 23.916 20.931 10.717q30.405 0 55.563-9.963t42.614-26.665 30.893-40.367 21.432-48.586 13.2-54.069 6.977-54.321 1.744-51.573zM706.846 571.869q0-79.242-56.065-135.292t-135.293-56.065-135.293 56.065-56.065 135.292 56.065 135.293 135.293 56.065 135.293-56.065 56.065-135.293z"  horiz-adv-x="1024" />

    
    <glyph glyph-name="guanbi" unicode="&#58991;" d="M512 390.93248m-431.83616 0a431.83616 431.83616 0 1 1 863.67232 0 431.83616 431.83616 0 1 1-863.67232 0ZM720.6912 234.4448l-52.20352-52.20352L512 338.72896l-156.48768-156.48768L303.3088 234.4448l156.4928 156.48768L303.3088 547.42016l52.16256 52.1984 156.5184-156.49792 156.49792 156.49792 52.20352-52.1984-156.50304-156.4928z"  horiz-adv-x="1024" />

    
    <glyph glyph-name="xiajiantou" unicode="&#59185;" d="M508.025406 240.553282c-14.45307 0-28.183486 5.781228-39.023289 15.898376l-231.249118 231.249118c-10.117149 10.117149-10.117149 26.015526 0 36.132675s26.015526 10.117149 36.132675 0l231.249118-231.249118c2.16796-2.16796 4.335921-2.16796 5.781228 0l231.971771 231.971771c10.117149 10.117149 26.015526 10.117149 35.410021 0 10.117149-10.117149 10.117149-26.015526 0-36.132674l-231.971771-231.971772c-9.394495-10.117149-23.124912-15.898377-38.300635-15.898376z"  horiz-adv-x="1024" />

    
    <glyph glyph-name="youjiantou" unicode="&#59189;" d="M385.174312 107.585039c-6.503881 0-13.007763 2.16796-18.066337 7.226535-10.117149 10.117149-10.117149 26.015526 0 35.410021l231.249117 231.249118c1.445307 1.445307 1.445307 4.335921 0 5.781228l-231.249117 232.694425c-10.117149 10.117149-10.117149 26.015526 0 36.132674s26.015526 10.117149 36.132674 0l231.971772-231.971771c21.679605-21.679605 21.679605-56.366972 0-77.323924l-231.249118-231.249118c-5.781228-5.781228-12.285109-7.949188-18.788991-7.949188z"  horiz-adv-x="1024" />

    
    <glyph glyph-name="dian" unicode="&#58889;" d="M512 576a192.064 192.064 0 0 0 0-384 192 192 0 0 0 0 384z"  horiz-adv-x="1024" />

    
    <glyph glyph-name="gengduo" unicode="&#58903;" d="M257.22 81.47a36.46 36.46 0 0 0-25.78 62.24L471.73 384 231.44 624.29A36.46 36.46 0 0 0 283 675.85l246.77-246.73a63.83 63.83 0 0 0 0-90.2L283 92.15a36.35 36.35 0 0 0-25.78-10.68zM512 81.47a36.46 36.46 0 0 0-25.78 62.24L726.47 384 486.18 624.29a36.46 36.46 0 0 0 51.56 51.56l246.77-246.73a63.66 63.66 0 0 0 0-90.2L537.75 92.15A36.35 36.35 0 0 0 512 81.47z"  horiz-adv-x="1024" />

    
    <glyph glyph-name="shezhi" unicode="&#58971;" d="M64 421.3c1.2 10 5.1 19.9 11.9 28.4 6.8 8.5 15.5 14.5 25.1 17.8l86.3 30.7c4.2 11.7 8.9 23.3 14.4 34.6l-39.3 82.8c-4.3 9.1-6.3 19.5-5.1 30.2s5.3 20.5 11.5 28.4l52.9 52.9c8 6.2 17.7 10.4 28.4 11.5s21.1-0.8 30.2-5.1l82.8-39.3c11.4 5.4 22.9 10.2 34.7 14.4l30.7 86.3c3.4 9.5 9.4 18.3 17.8 25.1 8.5 6.8 18.3 10.7 28.4 11.9h74.4c10-1.2 19.9-5.1 28.4-11.9 8.5-6.8 14.5-15.5 17.8-25.1l30.7-86.3c11.7-4.2 23.3-8.9 34.7-14.4l82.8 39.3c9.1 4.3 19.5 6.3 30.2 5.1 10.8-1.2 20.5-5.3 28.4-11.5l52.9-52.9c6.2-8 10.4-17.7 11.5-28.4s-0.8-21.1-5.1-30.2l-39.3-82.8c5.4-11.3 10.2-22.9 14.4-34.6l86.3-30.7c9.5-3.4 18.3-9.4 25.1-17.8s10.7-18.3 11.9-28.4v-74.5c-1.2-10-5.1-19.9-11.9-28.4-6.8-8.5-15.5-14.5-25.1-17.8l-86.3-30.7c-4.2-11.7-8.9-23.3-14.4-34.7l39.3-82.8c4.3-9.1 6.3-19.5 5.1-30.2-1.2-10.8-5.3-20.5-11.5-28.4l-52.9-52.9c-8-6.2-17.7-10.4-28.4-11.5-10.8-1.2-21.1 0.8-30.2 5.1l-82.8 39.3c-11.4-5.4-22.9-10.2-34.7-14.4L595.4-27c-3.4-9.5-9.4-18.3-17.8-25.1-8.5-6.8-18.3-10.7-28.4-11.9h-74.4c-10 1.2-19.9 5.1-28.4 11.9-8.5 6.8-14.5 15.5-17.8 25.1l-30.7 86.3c-11.7 4.2-23.3 8.9-34.7 14.4l-82.8-39.3c-9.1-4.3-19.5-6.3-30.2-5.1s-20.5 5.3-28.4 11.5l-52.9 52.9c-6.2 8-10.4 17.7-11.5 28.4-1.2 10.8 0.8 21.1 5.1 30.2l39.3 82.8c-5.4 11.4-10.2 22.9-14.4 34.7L101 300.6c-9.5 3.4-18.3 9.4-25.1 17.8-6.8 8.5-10.7 18.3-11.9 28.4v74.5z m56.1-6.6c-1.8-20.3-1.8-41.1 0-61.3l112.3-39.9 4.2-13.5c5.3-17.6 12.5-34.7 21.2-51.2l6.6-12.5-51.1-107.6c13.3-15.5 27.8-30.1 43.4-43.4l107.6 51.1 12.5-6.6c16.5-8.7 33.6-15.9 51.2-21.2l13.5-4.2 39.9-112.3c10.1-0.9 20.3-1.4 30.6-1.4s20.5 0.5 30.6 1.4l39.9 112.3 13.5 4.2c17.6 5.3 34.7 12.5 51.2 21.2l12.5 6.6 107.6-51.1c15.5 13.3 30.1 27.8 43.4 43.4l-51.1 107.6 6.6 12.5c8.7 16.5 15.9 33.6 21.2 51.2l4.2 13.5 112.3 39.9c1.8 20.2 1.8 41 0 61.3l-112.3 39.9-4.2 13.5c-5.3 17.5-12.5 34.7-21.2 51.1l-6.6 12.5 51.1 107.6c-13.3 15.5-27.8 30.1-43.4 43.4l-107.6-51.1-12.5 6.6c-16.5 8.7-33.6 15.9-51.2 21.2l-13.5 4.2-39.9 112.3c-10.1 0.9-20.3 1.4-30.6 1.4s-20.5-0.5-30.6-1.4l-39.9-112.3-13.5-4.2c-17.6-5.3-34.7-12.5-51.2-21.2l-12.5-6.6-107.6 51.1c-15.5-13.3-30.1-27.8-43.4-43.4l51.1-107.6-6.6-12.5c-8.7-16.4-15.9-33.6-21.2-51.1l-4.2-13.5-112.3-39.9zM512 510c69.5 0 126-56.5 126-126s-56.5-126-126-126-126 56.5-126 126 56.5 126 126 126m0 56c-100.5 0-182-81.5-182-182s81.5-182 182-182 182 81.5 182 182-81.5 182-182 182z"  horiz-adv-x="1024" />

    
    <glyph glyph-name="rili" unicode="&#58904;" d="M911.9 774H782V834a30 30 0 0 1-60 0v-60h-180V834a30 30 0 0 1-60 0v-60H302V834a30 30 0 0 1-60 0v-60H112.1A80.1 80.1 0 0 1 32 693.9v-709.8A80.1 80.1 0 0 1 112.1-96h799.8A80.1 80.1 0 0 1 992-15.899999999999977V693.9A80.1 80.1 0 0 1 911.9 774zM932-15.899999999999977a20.1 20.1 0 0 0-20.1-20.1H112.1a20.1 20.1 0 0 0-20.1 20.1V693.9A20.1 20.1 0 0 0 112.1 714H242v-60a30 30 0 0 1 60 0V714h180v-60a30 30 0 0 1 60 0V714h180v-60a30 30 0 0 1 60 0V714h129.9a20.1 20.1 0 0 0 20.1-20.1zM242 504h120v-90H242zM242 354h120v-90H242zM242 204h120v-90H242zM452 204h120v-90h-120zM452 354h120v-90h-120zM452 504h120v-90h-120zM662 204h120v-90h-120zM662 354h120v-90h-120zM662 504h120v-90h-120z"  horiz-adv-x="1024" />

    
    <glyph glyph-name="tuichu" unicode="&#59095;" d="M742.4 25.6H198.4c-19.2 0-32 12.8-32 32v640c0 19.2 12.8 32 32 32h544c19.2 0 32 12.8 32 32s-12.8 32-32 32h-576c-38.4 0-64-25.6-64-64v-704c0-38.4 25.6-64 64-64h576c19.2 0 32 12.8 32 32 0 12.8-12.8 32-32 32zM998.4 377.6c0 12.8-6.4 25.6-19.2 25.6l-185.6 185.6c-12.8 12.8-32 12.8-44.8 0-12.8-12.8-12.8-32 0-44.8l140.8-140.8H390.4c-19.2 0-32-12.8-32-32s12.8-32 32-32h499.2l-140.8-140.8c-12.8-12.8-12.8-32 0-44.8 12.8-12.8 32-12.8 44.8 0l185.6 185.6c12.8 12.8 19.2 25.6 19.2 38.4z"  horiz-adv-x="1024" />

    
    <glyph glyph-name="hetong" unicode="&#58948;" d="M327.649505 369.760548c-7.777509-7.777509-23.332526-23.332526-23.332526-31.110034-15.555017-23.332526-23.332526-54.44256-15.555017-77.775086 7.777509-31.110034 38.887543-31.110034 62.220069-38.887542 54.44256-7.777509 101.107611 0 155.550171 0h155.550171c31.110034 0 54.44256 7.777509 69.997578 38.887542 15.555017 31.110034 7.777509 62.220069-15.555018 85.552595l-23.332525 23.332525c-15.555017 15.555017-15.555017 38.887543 0 62.220069 15.555017 15.555017 31.110034 38.887543 46.665051 62.220069 69.997577 108.88512 46.665051 256.657783-54.44256 342.210377-101.107611 85.552594-256.657783 77.775086-349.987885-15.555018-101.107611-101.107611-85.552594-272.2128 7.777508-381.097919 7.777509-38.887543-7.777509-54.44256-15.555017-69.997578z m606.645668-272.212799c0 54.44256-23.332526 77.775086-77.775085 77.775085h-699.975772c-54.44256 0-77.775086-23.332526-77.775085-77.775085v-77.775086h855.525942v77.775086z m-808.860891-186.660206h754.418331v77.775086h-754.418331v-77.775086z"  horiz-adv-x="1024" />

    
    <glyph glyph-name="home" unicode="&#58949;" d="M1007.021853 432.863071l-467.385892 450.390041c-16.995851 16.995851-42.489627 16.995851-59.485477 0l-467.385892-450.390041c-16.995851-16.995851-16.995851-42.489627 0-59.485478 16.995851-16.995851 42.489627-16.995851 59.485477 0l67.983403 67.983403v-509.875519c0-25.493776 16.995851-42.489627 42.489626-42.489626h229.443984c25.493776 0 42.489627 16.995851 42.489626 42.489626v254.93776h101.975104v-254.93776c0-25.493776 16.995851-42.489627 42.489626-42.489626h229.443984c25.493776 0 42.489627 16.995851 42.489626 42.489626v509.875519l67.983403-67.983403c8.497925-8.497925 16.995851-8.497925 33.991701-8.497925 8.497925 0 25.493776 8.497925 33.991701 16.995851 25.493776 0 16.995851 33.991701 0 50.987552z"  horiz-adv-x="1027" />

    
    <glyph glyph-name="jiesuan" unicode="&#58950;" d="M512-128c281.6 0 512 230.4 512 512s-230.4 512-512 512-512-230.4-512-512 230.4-512 512-512z m221.866667 819.2l-162.133334-298.666667h128v-68.266666h-145.066666v-93.866667h145.066666v-68.266667h-145.066666v-128h-85.333334v128h-153.6v68.266667h153.6v93.866667h-153.6v68.266666h128l-162.133333 298.666667h93.866667l110.933333-230.4c8.533333-8.533333 17.066667-25.6 17.066667-51.2 8.533333 17.066667 8.533333 34.133333 25.6 51.2l110.933333 230.4h93.866667z"  horiz-adv-x="1024" />

    
    <glyph glyph-name="xiaoxitongzhi" unicode="&#58951;" d="M902.839695 28.335878c0 85.984733-39.083969 164.152672-101.618321 218.870229v242.320611c0 140.70229-85.984733 257.954198-203.236641 281.40458v7.816794c0 62.534351-46.900763 117.251908-101.618321 117.251908s-101.618321-54.717557-101.61832-117.251908v-7.816794c-117.251908-31.267176-203.236641-148.519084-203.236642-281.40458v-242.320611c-62.534351-54.717557-101.618321-132.885496-101.61832-218.870229h812.946565z m-437.740458-156.335878h23.450381c70.351145 0 125.068702 54.717557 132.885497 132.885496h-265.770993c7.816794-70.351145 62.534351-132.885496 132.885496-132.885496h-23.450381z"  horiz-adv-x="1024" />

    
    <glyph glyph-name="leijidianliang" unicode="&#58952;" d="M126.030769 320.984615v-47.261538c0-31.507692 31.507692-63.015385 63.015385-63.015385h299.323077c0 63.015385 15.753846 126.030769 47.261538 173.292308h-346.584615c-39.384615 0-63.015385-31.507692-63.015385-63.015385zM575.015385 439.138462c23.630769 23.630769 47.261538 47.261538 70.892307 63.015384v47.261539c0 31.507692-31.507692 63.015385-63.015384 63.015384h-464.738462c-31.507692 0-63.015385-31.507692-63.015384-63.015384v-47.261539c0-31.507692 31.507692-63.015385 63.015384-63.015384h456.861539zM189.046154 659.692308h464.738461c31.507692 0 63.015385 31.507692 63.015385 63.015384v47.261539c0 31.507692-31.507692 63.015385-63.015385 63.015384h-464.738461c-31.507692 0-63.015385-31.507692-63.015385-63.015384v-47.261539c0-31.507692 23.630769-63.015385 63.015385-63.015384zM149.661538 155.569231c-31.507692 0-63.015385-31.507692-63.015384-63.015385v-47.261538c0-31.507692 31.507692-63.015385 63.015384-63.015385h417.476924c-39.384615 47.261538-70.892308 110.276923-78.769231 173.292308h-338.707693zM834.953846 502.153846c-165.415385 0-291.446154-133.907692-291.446154-299.323077 0-165.415385 133.907692-299.323077 291.446154-299.323077 165.415385 0 291.446154 133.907692 291.446154 299.323077 7.876923 173.292308-126.030769 299.323077-291.446154 299.323077z m-70.892308-504.123077l110.276924 236.307693h-165.415385l165.415385 189.046153-23.63077-126.030769 189.046154 7.876923-275.692308-307.2z"  horiz-adv-x="1181" />

    
    <glyph glyph-name="information" unicode="&#58953;" d="M380.342857 310.857143v21.942857c-87.771429 43.885714-153.6 138.971429-153.6 256 0 153.6 117.028571 277.942857 270.628572 277.942857 146.285714 0 270.628571-124.342857 270.628571-277.942857 0-109.714286-65.828571-212.114286-153.6-256v-21.942857c153.6-43.885714 270.628571-175.542857 270.628571-336.457143v-43.885714h-760.685714v43.885714c-14.628571 160.914286 102.4 292.571429 256 336.457143z"  horiz-adv-x="1024" />

    
    <glyph glyph-name="jiaoyi" unicode="&#58954;" d="M0-44.612604l138.978993 55.591597c27.795799 9.265266 55.591597 0 74.12213-18.530532 46.326331-37.061065 101.917928-74.12213 157.509525-101.917929 46.326331-18.530532 92.652662-18.530532 138.978993 18.530533 9.265266 0 9.265266 9.265266 18.530532 18.530532-27.795799 18.530532-46.326331 27.795799-64.856863 46.326331l-83.387396 55.591597c-46.326331 37.061065-64.856863 101.917928-46.326331 166.774792 18.530532 55.591597 64.856863 101.917928 111.183195 92.652662 18.530532 0 27.795799-9.265266 46.326331-18.530532 37.061065-18.530532 74.12213-37.061065 111.183194-64.856864 37.061065-18.530532 64.856863-9.265266 92.652662 18.530533 74.12213 83.387396 138.978993 176.040058 213.101123 259.427453 18.530532 27.795799 18.530532 64.856863 0 92.652662-18.530532 27.795799-55.591597 27.795799-74.12213 0-18.530532-27.795799-46.326331-55.591597-64.856863-83.387396 0-9.265266-9.265266-18.530532-18.530533-9.265266 0 0 0 18.530532 9.265266 18.530533 18.530532 27.795799 46.326331 55.591597 64.856864 83.387395 27.795799 37.061065 18.530532 83.387396-9.265266 101.917929-18.530532 9.265266-46.326331 9.265266-64.856864-18.530533-27.795799-37.061065-55.591597-64.856863-83.387396-101.917928 0 0-9.265266-9.265266-18.530532-9.265266 0 18.530532 0 18.530532 9.265266 27.795798 18.530532 27.795799 46.326331 55.591597 64.856864 83.387396 9.265266 9.265266 18.530532 27.795799 18.530532 46.326331 0 27.795799-9.265266 46.326331-27.795799 55.591597-18.530532 9.265266-37.061065 0-55.591597-18.530532-27.795799-27.795799-46.326331-64.856863-74.122129-92.652662 0-9.265266-9.265266-9.265266-9.265267-9.265266h-9.265266v9.265266c0 9.265266 9.265266 9.265266 9.265266 18.530532 18.530532 27.795799 37.061065 46.326331 55.591598 74.12213 18.530532 18.530532 18.530532 55.591597 0 74.12213-18.530532 27.795799-46.326331 37.061065-74.12213 9.265266-9.265266-9.265266-18.530532-18.530532-27.795799-37.061065v-9.265266c9.265266-64.856863-18.530532-120.448461-74.122129-148.244259l-9.265266-9.265267c-9.265266-37.061065-37.061065-74.12213-64.856864-83.387395l-9.265266-9.265267c-9.265266-37.061065-37.061065-64.856863-64.856863-83.387395l-9.265267-9.265267c-18.530532-74.12213-83.387396-101.917928-138.978993-83.387395-46.326331 9.265266-74.12213 46.326331-83.387395 92.652662l-55.591598-27.795799v-472.528576z m1139.627743 472.528576c-37.061065 9.265266-83.387396 18.530532-120.448461 27.795799-27.795799 9.265266-55.591597-9.265266-74.12213-27.795799-74.12213-92.652662-157.509525-185.305324-231.631655-277.957986-27.795799-27.795799-46.326331-37.061065-83.387395-18.530532-46.326331 27.795799-83.387396 55.591597-129.713727 83.387395-9.265266 9.265266-27.795799 18.530532-37.061065 27.795799-27.795799 18.530532-74.12213 9.265266-83.387396-37.061065-18.530532-37.061065-9.265266-83.387396 27.795799-111.183194 92.652662-64.856863 176.040058-129.713727 268.69272-185.305324 37.061065-27.795799 74.12213-27.795799 111.183194 9.265266 37.061065 37.061065 74.12213 83.387396 111.183194 120.448461 18.530532 18.530532 37.061065 27.795799 64.856864 18.530532 55.591597-18.530532 111.183194-27.795799 157.509525-46.326331h9.265266v416.936979z m-806.07816 352.080116c-9.265266 0-18.530532 9.265266-27.795798 9.265266-18.530532 0-27.795799 0-46.326331-9.265266-18.530532-18.530532-18.530532-37.061065-9.265267-55.591598 0-9.265266 9.265266-18.530532 9.265267-37.061064-9.265266 0-18.530532 9.265266-27.795799 9.265266-37.061065 9.265266-64.856863-27.795799-55.591597-74.12213 0-9.265266 9.265266-18.530532 9.265266-37.061065-9.265266 0-9.265266 0-18.530532 9.265267-46.326331 18.530532-74.12213-27.795799-64.856864-74.12213 9.265266-46.326331 37.061065-83.387396 74.12213-92.652662 37.061065-9.265266 74.12213 37.061065 64.856863 83.387396v9.265266c18.530532 0 46.326331 0 55.591597 18.530532 18.530532 18.530532 18.530532 46.326331 18.530533 74.12213 27.795799 0 46.326331 0 64.856863 27.795799 18.530532 27.795799 18.530532 46.326331 9.265266 83.387395h27.795799c37.061065 0 64.856863 46.326331 55.591597 92.652662-9.265266 55.591597-74.12213 92.652662-111.183194 74.12213-27.795799-9.265266-37.061065-37.061065-27.795799-74.12213-9.265266-9.265266 0-18.530532 0-37.061064z"  horiz-adv-x="1204" />

    
    <glyph glyph-name="shijidl" unicode="&#58955;" d="M504.685714 881.371429c-277.942857 0-497.371429-226.742857-497.371428-504.685715s226.742857-497.371429 497.371428-497.371428c277.942857 0 497.371429 226.742857 497.371429 497.371428 0 285.257143-219.428571 504.685714-497.371429 504.685715z m-190.171428-921.6l190.171428 394.971428h-277.942857l277.942857 321.828572-43.885714-219.428572 321.828571 14.628572-468.114285-512z"  horiz-adv-x="1024" />

    
    <glyph glyph-name="left-bottom-trangle" unicode="&#58956;" d="M206.11072 846.72512C112.4352 910.25408 36.4544 869.86752 36.4544 756.81792v-646.59456a204.75904 204.75904 0 0 1 204.3904-205.0048h1148.68224c112.88576 0 128.2048 51.69152 34.77504 115.0976L206.11072 846.72512z"  horiz-adv-x="1515" />

    
    <glyph glyph-name="pianchalv" unicode="&#58957;" d="M504.685714 157.257143c-14.628571 0-29.257143-14.628571-29.257143-29.257143s14.628571-29.257143 29.257143-29.257143 29.257143 14.628571 29.257143 29.257143c0 7.314286-14.628571 29.257143-29.257143 29.257143zM197.485714 530.285714l7.314286-14.628571c21.942857-58.514286 73.142857-204.8 95.085714-270.628572 73.142857 51.2 153.6 65.828571 234.057143 58.514286l73.142857 219.428572 51.2-21.942858-65.828571-204.8c36.571429-7.314286 80.457143-29.257143 109.714286-51.2 21.942857 65.828571 73.142857 212.114286 95.085714 263.314286 0 7.314286 7.314286 14.628571 7.314286 14.628572-175.542857 146.285714-424.228571 146.285714-607.085715 7.314285zM512 896c-277.942857 0-497.371429-226.742857-497.371429-504.685714s226.742857-497.371429 497.371429-497.371429c277.942857 0 497.371429 226.742857 497.371429 497.371429 7.314286 277.942857-219.428571 504.685714-497.371429 504.685714z m343.771429-402.285714c-14.628571-43.885714-43.885714-117.028571-65.828572-182.857143-14.628571-36.571429-21.942857-65.828571-29.257143-80.457143s-7.314286-21.942857-7.314285-29.257143v-7.314286c-7.314286-14.628571-21.942857-21.942857-29.257143-21.942857s-14.628571 0-14.628572 7.314286c-36.571429 29.257143-80.457143 51.2-124.342857 65.828571l-14.628571-51.2c29.257143-29.257143 36.571429-73.142857 14.628571-109.714285s-65.828571-51.2-102.4-36.571429-58.514286 58.514286-51.2 102.4c7.314286 43.885714 43.885714 73.142857 80.457143 73.142857l14.628571 36.571429c-73.142857 7.314286-153.6-21.942857-212.114285-73.142857-7.314286-7.314286-7.314286-7.314286-14.628572-7.314286s-21.942857 0-29.257143 21.942857v7.314286c0 7.314286-7.314286 14.628571-7.314285 29.257143-7.314286 21.942857-14.628571 51.2-29.257143 80.457143-21.942857 65.828571-51.2 138.971429-65.828572 182.857142-7.314286 21.942857-14.628571 36.571429-14.628571 36.571429 0 14.628571 0 29.257143 7.314286 36.571429 204.8 160.914286 504.685714 160.914286 709.485714 0v-43.885715s-7.314286-21.942857-14.628571-36.571428z"  horiz-adv-x="1024" />

    
    <glyph glyph-name="ri" unicode="&#58958;" d="M965.485714 310.857143c-21.942857 0-36.571429-14.628571-36.571428-36.571429s14.628571-36.571429 36.571428-36.571428 36.571429 14.628571 36.571429 36.571428-14.628571 36.571429-36.571429 36.571429z m-29.257143 153.6c0-21.942857 14.628571-36.571429 36.571429-36.571429s36.571429 14.628571 36.571429 36.571429-14.628571 36.571429-36.571429 36.571428-36.571429-14.628571-36.571429-36.571428z m-314.514285-490.057143c-21.942857 0-36.571429-14.628571-36.571429-36.571429s14.628571-36.571429 36.571429-36.571428 36.571429 14.628571 36.571428 36.571428-14.628571 36.571429-36.571428 36.571429z m270.628571 182.857143c-21.942857 0-36.571429-14.628571-36.571428-36.571429s14.628571-36.571429 36.571428-36.571428 36.571429 14.628571 36.571429 36.571428c7.314286 21.942857-14.628571 36.571429-36.571429 36.571429z m-109.714286-109.714286c-21.942857 0-36.571429-14.628571-36.571428-36.571428s14.628571-36.571429 36.571428-36.571429 36.571429 14.628571 36.571429 36.571429c0 14.628571-21.942857 36.571429-36.571429 36.571428z m-270.628571-87.771428c-58.514286 0-109.714286 14.628571-168.228571 36.571428-51.2 21.942857-95.085714 51.2-138.971429 87.771429-36.571429 36.571429-73.142857 87.771429-87.771429 138.971428-21.942857 51.2-36.571429 109.714286-36.571428 168.228572s14.628571 109.714286 36.571428 168.228571c21.942857 51.2 51.2 95.085714 87.771429 138.971429 36.571429 36.571429 87.771429 73.142857 138.971429 87.771428 51.2 21.942857 109.714286 36.571429 168.228571 36.571429s109.714286-14.628571 168.228571-36.571429c51.2-21.942857 95.085714-51.2 138.971429-87.771428s73.142857-87.771429 87.771429-138.971429l65.828571 29.257143c-73.142857 182.857143-248.685714 307.2-460.8 307.2-277.942857 0-497.371429-219.428571-497.371429-497.371429s219.428571-497.371429 497.371429-497.371428v58.514286zM687.542857 603.428571v-424.228571h-65.828571v29.257143h-219.428572v-29.257143h-58.514285v431.542857h343.771428v-7.314286z m-285.257143-58.514285v-109.714286h219.428572v109.714286h-219.428572z m219.428572-277.942857v109.714285h-219.428572v-109.714285h219.428572z"  horiz-adv-x="1024" />

    


  </font>
</defs>
</svg>
